<?xml version="1.0" encoding="UTF-8" standalone="no"?>
<!-- Created with Inkscape (http://www.inkscape.org/) -->

<svg
   width="36.565182mm"
   height="36.127701mm"
   viewBox="0 0 36.565182 36.127701"
   version="1.1"
   id="svg1"
   xml:space="preserve"
   sodipodi:docname="Logo.svg"
   inkscape:version="1.3.1 (91b66b0783, 2023-11-16)"
   xmlns:inkscape="http://www.inkscape.org/namespaces/inkscape"
   xmlns:sodipodi="http://sodipodi.sourceforge.net/DTD/sodipodi-0.dtd"
   xmlns="http://www.w3.org/2000/svg"
   xmlns:svg="http://www.w3.org/2000/svg"><sodipodi:namedview
     id="namedview1"
     pagecolor="#ffffff"
     bordercolor="#000000"
     borderopacity="0.25"
     inkscape:showpageshadow="2"
     inkscape:pageopacity="0.0"
     inkscape:pagecheckerboard="0"
     inkscape:deskcolor="#d1d1d1"
     inkscape:document-units="mm"
     inkscape:zoom="2.9606624"
     inkscape:cx="0.16888112"
     inkscape:cy="65.188114"
     inkscape:window-width="2558"
     inkscape:window-height="1378"
     inkscape:window-x="1273"
     inkscape:window-y="0"
     inkscape:window-maximized="0"
     inkscape:current-layer="layer1" /><defs
     id="defs1" /><g
     inkscape:label="Layer 1"
     inkscape:groupmode="layer"
     id="layer1"
     transform="translate(-22.437407,-101.1952)"><g
       id="g17"><path
         id="path6"
         style="fill:#f2f2f2;stroke:#0c0c0c;stroke-width:2;fill-opacity:1;stroke-opacity:1"
         d="m 48.152344,113.99805 -5.056641,5.05468 5.308594,5.4336 7.708984,-0.25195 c 2.52766,-3.38076 2.510482,-6.80865 0,-10.23633 z" /><path
         id="path6-1"
         style="fill:#f2f2f2;stroke:#0c0c0c;stroke-width:2;fill-opacity:1;stroke-opacity:1"
         d="m 33.287653,114.02593 5.056641,5.05468 -5.308594,5.4336 -7.708984,-0.25195 c -2.52766,-3.38076 -2.510482,-6.80865 0,-10.23633 z" /><path
         id="path6-9"
         style="fill:#f2f2f2;stroke:#0c0c0c;stroke-width:2;fill-opacity:1;stroke-opacity:1"
         d="m 35.759376,112.04545 5.05468,5.05664 5.4336,-5.3086 -0.25195,-7.70898 c -3.38076,-2.52766 -6.80865,-2.51048 -10.23633,0 z" /><path
         id="path6-8"
         style="fill:#f2f2f2;stroke:#0c0c0c;stroke-width:2;fill-opacity:1;stroke-opacity:1"
         d="m 45.758986,126.47266 -5.05468,-5.05664 -5.4336,5.30859 0.25195,7.70898 c 3.38076,2.52766 6.80865,2.51049 10.23633,0 z" /></g></g></svg>
